<svg width="17" height="17" viewBox="0 0 17 17" fill="none" xmlns="http://www.w3.org/2000/svg">
<path d="M8.58335 4.54171C7.80047 4.54171 7.03517 4.77386 6.38422 5.20881C5.73328 5.64375 5.22593 6.26196 4.92633 6.98525C4.62673 7.70854 4.54835 8.50443 4.70108 9.27227C4.85381 10.0401 5.23081 10.7454 5.78439 11.299C6.33797 11.8526 7.04328 12.2296 7.81112 12.3823C8.57896 12.535 9.37485 12.4567 10.0981 12.1571C10.8214 11.8575 11.4396 11.3501 11.8746 10.6992C12.3095 10.0482 12.5417 9.28292 12.5417 8.50004C12.5417 7.45022 12.1246 6.44341 11.3823 5.70108C10.64 4.95874 9.63317 4.54171 8.58335 4.54171ZM8.58335 10.875C8.11362 10.875 7.65444 10.7357 7.26387 10.4748C6.87331 10.2138 6.5689 9.84289 6.38914 9.40891C6.20938 8.97494 6.16235 8.49741 6.25399 8.0367C6.34563 7.576 6.57182 7.15281 6.90397 6.82066C7.23612 6.48851 7.65931 6.26232 8.12001 6.17068C8.58072 6.07904 9.05825 6.12607 9.49223 6.30583C9.9262 6.48558 10.2971 6.78999 10.5581 7.18056C10.8191 7.57113 10.9584 8.03031 10.9584 8.50004C10.9584 9.12993 10.7081 9.73402 10.2627 10.1794C9.81733 10.6248 9.21324 10.875 8.58335 10.875ZM12.5417 3.75004C12.3851 3.75004 12.232 3.79647 12.1019 3.88346C11.9717 3.97045 11.8702 4.09409 11.8103 4.23875C11.7504 4.38341 11.7347 4.54259 11.7652 4.69615C11.7958 4.84972 11.8712 4.99078 11.9819 5.1015C12.0926 5.21222 12.2337 5.28762 12.3872 5.31816C12.5408 5.34871 12.7 5.33303 12.8446 5.27311C12.9893 5.21319 13.1129 5.11172 13.1999 4.98153C13.2869 4.85134 13.3334 4.69828 13.3334 4.54171C13.3334 4.33174 13.2499 4.13038 13.1015 3.98191C12.953 3.83345 12.7516 3.75004 12.5417 3.75004ZM16.4525 5.52337C16.4394 4.84683 16.3109 4.1775 16.0725 3.54421C15.8515 2.96793 15.5117 2.44458 15.0753 2.00813C14.6388 1.57169 14.1155 1.23192 13.5392 1.01087C12.9059 0.772503 12.2366 0.64399 11.56 0.630874C10.7921 0.583374 10.5388 0.583374 8.58335 0.583374C6.62794 0.583374 6.3746 0.583374 5.60669 0.630874C4.93015 0.64399 4.26081 0.772503 3.62752 1.01087C3.05124 1.23192 2.52789 1.57169 2.09145 2.00813C1.65501 2.44458 1.31523 2.96793 1.09419 3.54421C0.855816 4.1775 0.727303 4.84683 0.714187 5.52337C0.666687 6.29921 0.666687 6.55254 0.666687 8.50004C0.666687 10.4475 0.666687 10.7009 0.714187 11.4767C0.727303 12.1532 0.855816 12.8226 1.09419 13.4559C1.31523 14.0322 1.65501 14.5555 2.09145 14.9919C2.52789 15.4284 3.05124 15.7682 3.62752 15.9892C4.26081 16.2276 4.93015 16.3561 5.60669 16.3692C6.39835 16.3692 6.62794 16.4167 8.58335 16.4167C10.5388 16.4167 10.7921 16.4167 11.56 16.3692C12.2366 16.3561 12.9059 16.2276 13.5392 15.9892C14.1155 15.7682 14.6388 15.4284 15.0753 14.9919C15.5117 14.5555 15.8515 14.0322 16.0725 13.4559C16.3109 12.8226 16.4394 12.1532 16.4525 11.4767C16.4525 10.685 16.5 10.4475 16.5 8.50004C16.5 6.55254 16.5 6.29921 16.4525 5.52337ZM14.8692 11.4055C14.8553 11.9079 14.7618 12.4049 14.5921 12.878C14.4518 13.2519 14.2301 13.5899 13.9429 13.8675C13.667 14.1548 13.3283 14.3743 12.9534 14.5088C12.4792 14.6854 11.9788 14.7817 11.4729 14.7938C10.7288 14.7938 10.4992 14.8334 8.57544 14.8334C6.65169 14.8334 6.43002 14.8334 5.68585 14.8334C5.18079 14.8203 4.68103 14.7268 4.20544 14.5563C3.8315 14.416 3.49347 14.1942 3.21585 13.9071C2.9286 13.6312 2.70912 13.2925 2.5746 12.9175C2.3987 12.4459 2.30239 11.9483 2.2896 11.445C2.2896 10.6534 2.2896 10.4555 2.2896 8.53962C2.2896 6.62379 2.2896 6.39421 2.2896 5.63421C2.30325 5.1285 2.39952 4.62842 2.5746 4.15379C2.71121 3.78221 2.93048 3.44653 3.21585 3.17212C3.49181 2.88487 3.83051 2.66539 4.20544 2.53087C4.67964 2.35425 5.17997 2.25793 5.68585 2.24587C6.43002 2.16671 6.6596 2.16671 8.58335 2.16671C10.5071 2.16671 10.7367 2.16671 11.4809 2.16671C11.9892 2.17963 12.492 2.27591 12.9692 2.45171C13.3408 2.58832 13.6764 2.80759 13.9509 3.09296C14.2381 3.36891 14.4576 3.70761 14.5921 4.08254C14.7859 4.56432 14.8957 5.07575 14.9167 5.59462C14.9167 6.38629 14.9563 6.58421 14.9563 8.50004C14.9563 10.4159 14.9167 10.6455 14.9167 11.4055H14.8692Z" fill="#F2709C"/>
</svg>
