<svg width="18" height="18" viewBox="0 0 18 18" fill="none" xmlns="http://www.w3.org/2000/svg">
<path d="M13.3125 6.12422C12.6038 6.12392 11.906 6.29922 11.2815 6.63447C11.2246 6.48439 11.1233 6.3552 10.9911 6.26406C10.859 6.17292 10.7022 6.12415 10.5417 6.12422H7.375C7.27102 6.12416 7.16805 6.1446 7.07197 6.18436C6.9759 6.22412 6.8886 6.28243 6.81508 6.35596C6.74155 6.42948 6.68324 6.51678 6.64348 6.61286C6.60371 6.70893 6.58328 6.8119 6.58334 6.91588V16.4159C6.58328 16.5199 6.60371 16.6228 6.64347 16.7189C6.68324 16.815 6.74155 16.9023 6.81507 16.9758C6.8886 17.0493 6.9759 17.1076 7.07197 17.1474C7.16805 17.1872 7.27102 17.2076 7.375 17.2076H10.5417C10.6456 17.2076 10.7486 17.1872 10.8447 17.1474C10.9408 17.1076 11.0281 17.0493 11.1016 16.9758C11.1751 16.9023 11.2334 16.815 11.2732 16.7189C11.313 16.6228 11.3334 16.5199 11.3333 16.4159V12.0617C11.3333 11.8518 11.4167 11.6504 11.5652 11.5019C11.7137 11.3535 11.915 11.2701 12.125 11.2701C12.335 11.2701 12.5363 11.3535 12.6848 11.5019C12.8333 11.6504 12.9167 11.8518 12.9167 12.0617V16.4159C12.9166 16.5199 12.937 16.6228 12.9768 16.7189C13.0166 16.815 13.0749 16.9023 13.1484 16.9758C13.2219 17.0493 13.3092 17.1076 13.4053 17.1474C13.5014 17.1872 13.6044 17.2076 13.7083 17.2076H16.875C16.979 17.2076 17.082 17.1872 17.178 17.1474C17.2741 17.1076 17.3614 17.0493 17.4349 16.9758C17.5085 16.9023 17.5668 16.815 17.6065 16.7189C17.6463 16.6228 17.6667 16.5199 17.6667 16.4159V10.4784C17.6652 9.32403 17.206 8.21736 16.3898 7.40111C15.5735 6.58486 14.4669 6.12565 13.3125 6.12422ZM16.0833 15.6242H14.5V12.0617C14.5 11.4318 14.2498 10.8277 13.8044 10.3823C13.359 9.93694 12.7549 9.68672 12.125 9.68672C11.4951 9.68672 10.891 9.93694 10.4456 10.3823C10.0002 10.8277 9.75 11.4318 9.75 12.0617V15.6242H8.16667V7.70755H9.75V8.2642C9.7501 8.42823 9.80112 8.58819 9.89602 8.72198C9.99093 8.85577 10.125 8.9568 10.2798 9.01111C10.4346 9.06542 10.6024 9.07033 10.7601 9.02517C10.9178 8.98001 11.0576 8.887 11.1602 8.75899C11.5154 8.30777 12.0028 7.97875 12.5541 7.81789C13.1054 7.65702 13.6932 7.67234 14.2354 7.8617C14.7776 8.05105 15.2471 8.405 15.5784 8.87411C15.9097 9.34323 16.0862 9.90409 16.0833 10.4784V15.6242ZM5 6.12422H1.83334C1.72936 6.12416 1.62638 6.1446 1.53031 6.18436C1.43423 6.22412 1.34694 6.28243 1.27341 6.35596C1.19989 6.42948 1.14157 6.51678 1.10181 6.61286C1.06205 6.70893 1.04161 6.8119 1.04167 6.91588V16.4159C1.04161 16.5199 1.06204 16.6228 1.10181 16.7189C1.14157 16.815 1.19988 16.9023 1.27341 16.9758C1.34693 17.0493 1.43423 17.1076 1.53031 17.1474C1.62638 17.1872 1.72936 17.2076 1.83334 17.2076H5C5.10398 17.2076 5.20695 17.1872 5.30303 17.1474C5.39911 17.1076 5.4864 17.0493 5.55993 16.9758C5.63346 16.9023 5.69177 16.815 5.73153 16.7189C5.77129 16.6228 5.79173 16.5199 5.79167 16.4159V6.91588C5.79173 6.8119 5.77129 6.70893 5.73153 6.61286C5.69176 6.51678 5.63345 6.42948 5.55993 6.35596C5.4864 6.28243 5.39911 6.22412 5.30303 6.18436C5.20695 6.1446 5.10398 6.12416 5 6.12422ZM4.20834 15.6242H2.625V7.70755H4.20834V15.6242ZM3.42827 0.22076C3.0818 0.200021 2.73474 0.24997 2.40819 0.36757C2.08163 0.48517 1.78241 0.667963 1.52872 0.904833C1.27502 1.1417 1.07216 1.4277 0.932465 1.74543C0.79277 2.06316 0.719162 2.40599 0.716117 2.75306C0.713072 3.10013 0.780654 3.44419 0.914753 3.76433C1.04885 4.08446 1.24666 4.37397 1.49616 4.61525C1.74566 4.85654 2.04163 5.04455 2.36607 5.16787C2.69051 5.29118 3.03664 5.34721 3.38342 5.33255H3.40584C3.75322 5.35319 4.10116 5.30277 4.4284 5.18439C4.75564 5.06601 5.0553 4.88215 5.30909 4.64405C5.56287 4.40594 5.76543 4.11859 5.90441 3.79955C6.04338 3.48051 6.11585 3.13649 6.11737 2.7885C6.1189 2.44051 6.04946 2.09586 5.91328 1.77562C5.77711 1.45537 5.57708 1.16626 5.32539 0.925933C5.07371 0.685611 4.77567 0.499129 4.44948 0.377883C4.12329 0.256637 3.77581 0.203174 3.42826 0.22076H3.42827ZM3.40585 3.74922H3.38342C3.24651 3.76584 3.10764 3.753 2.9761 3.71156C2.84456 3.67011 2.72341 3.60102 2.62076 3.50892C2.51811 3.41682 2.43635 3.30383 2.38094 3.17754C2.32554 3.05124 2.29778 2.91456 2.29952 2.77666C2.29952 2.186 2.74252 1.80409 3.42827 1.80409C3.56657 1.78565 3.70722 1.79706 3.84074 1.83756C3.97426 1.87806 4.09755 1.9467 4.20231 2.03886C4.30707 2.13101 4.39086 2.24455 4.44804 2.37182C4.50523 2.49909 4.53447 2.63714 4.53381 2.77666C4.53381 3.36732 4.09082 3.74922 3.40585 3.74922Z" fill="#F2709C"/>
</svg>
