<svg width="18" height="15" viewBox="0 0 18 15" fill="none" xmlns="http://www.w3.org/2000/svg">
<path d="M17.5347 1.12729C17.5348 0.987453 17.4978 0.850092 17.4275 0.729194C17.3573 0.608295 17.2562 0.508177 17.1347 0.439037C17.0131 0.369896 16.8754 0.334203 16.7356 0.335592C16.5958 0.336981 16.4588 0.375403 16.3387 0.446945C15.8753 0.72275 15.3764 0.933966 14.8559 1.07474C14.1125 0.436837 13.1644 0.0877681 12.1848 0.0913357C11.1102 0.0925728 10.0781 0.511388 9.30648 1.25935C8.53486 2.0073 8.08412 3.02585 8.04943 4.09992C5.93092 3.76209 4.01085 2.65634 2.65537 0.993535C2.5737 0.894446 2.4694 0.81645 2.35126 0.766126C2.23313 0.715801 2.10462 0.694623 1.97658 0.704379C1.84862 0.714915 1.72515 0.756465 1.61684 0.825433C1.50854 0.894401 1.41867 0.988713 1.355 1.10021C1.02846 1.67006 0.840914 2.3089 0.8076 2.96483C0.774285 3.62077 0.896139 4.27531 1.16326 4.87531L1.16172 4.87686C1.04166 4.9508 0.942581 5.05432 0.873954 5.17749C0.805327 5.30067 0.769449 5.43939 0.76975 5.5804C0.768297 5.69671 0.775274 5.81299 0.790627 5.92829C0.871485 6.92442 1.31295 7.85684 2.03224 8.55069C1.98345 8.64365 1.95367 8.7454 1.94464 8.85C1.93561 8.95461 1.94752 9.05996 1.97967 9.1599C2.29326 10.1369 2.96015 10.9618 3.84983 11.473C2.94594 11.8226 1.96996 11.9444 1.00787 11.8279C0.8298 11.8056 0.649425 11.8444 0.496331 11.9381C0.343237 12.0317 0.226514 12.1746 0.165309 12.3433C0.104104 12.512 0.102051 12.6965 0.159487 12.8665C0.216923 13.0366 0.330437 13.182 0.48141 13.279C2.13607 14.3448 4.06265 14.9114 6.03081 14.9111C8.26272 14.9362 10.4404 14.223 12.225 12.8824C14.0096 11.5418 15.3012 9.64904 15.8988 7.49846C16.1783 6.56163 16.321 5.58934 16.3225 4.6117C16.3225 4.5599 16.3225 4.50656 16.3217 4.45321C16.735 4.00745 17.0552 3.48366 17.2635 2.91255C17.4718 2.34144 17.564 1.73449 17.5347 1.12729ZM14.9169 3.67005C14.7862 3.8247 14.72 4.02377 14.7322 4.22592C14.7399 4.35654 14.7391 4.48796 14.7391 4.6117C14.7375 5.43783 14.6164 6.25939 14.3796 7.05087C13.8916 8.88072 12.8035 10.4939 11.2898 11.6319C9.77608 12.77 7.92422 13.3672 6.03081 13.3278C5.35067 13.328 4.67288 13.2481 4.01144 13.0896C4.85489 12.8178 5.64353 12.3988 6.34083 11.8519C6.46926 11.7508 6.56325 11.6124 6.6099 11.4557C6.65656 11.2991 6.6536 11.1318 6.60142 10.9769C6.54925 10.822 6.45042 10.687 6.31849 10.5905C6.18656 10.494 6.028 10.4407 5.86456 10.4379C5.20655 10.4276 4.57821 10.1624 4.11191 9.69801C4.2302 9.67559 4.34772 9.64775 4.46446 9.61451C4.63547 9.56583 4.78512 9.46102 4.88931 9.31695C4.99351 9.17288 5.04619 8.99794 5.03887 8.82029C5.03155 8.64264 4.96466 8.47262 4.84896 8.33761C4.73326 8.2026 4.5755 8.11046 4.40106 8.07601C4.01911 8.00059 3.6597 7.83809 3.35077 7.60116C3.04184 7.36423 2.7917 7.05925 2.61981 6.70992C2.76289 6.72945 2.90688 6.74158 3.05121 6.74626C3.22267 6.74885 3.39051 6.69684 3.53046 6.59775C3.67041 6.49865 3.77522 6.35762 3.82973 6.19503C3.88197 6.03097 3.87928 5.85435 3.82208 5.69195C3.76487 5.52955 3.65628 5.39024 3.51276 5.29513C3.16454 5.06315 2.8793 4.74842 2.68258 4.37913C2.48586 4.00985 2.38381 3.59754 2.38556 3.17913C2.38556 3.12656 2.3871 3.07399 2.3902 3.02219C4.16453 4.67697 6.46595 5.65246 8.88899 5.77679C9.0113 5.7816 9.1331 5.75857 9.2452 5.70941C9.3573 5.66026 9.45677 5.58628 9.53609 5.49305C9.61461 5.39893 9.6702 5.28786 9.6985 5.16859C9.7268 5.04933 9.72703 4.92513 9.69917 4.80576C9.6539 4.61684 9.63081 4.42328 9.63037 4.22901C9.63109 3.55177 9.90044 2.90247 10.3793 2.42359C10.8582 1.94471 11.5075 1.67536 12.1848 1.67465C12.5332 1.67371 12.878 1.74502 13.1975 1.88408C13.517 2.02313 13.8042 2.22691 14.041 2.48255C14.1323 2.58078 14.2472 2.65402 14.3748 2.6953C14.5024 2.73658 14.6385 2.74452 14.77 2.71838C15.0952 2.65509 15.4158 2.56985 15.7295 2.46326C15.5155 2.90103 15.2421 3.30713 14.9169 3.67005Z" fill="#F2709C"/>
</svg>
