<svg width="17" height="13" viewBox="0 0 17 13" fill="none" xmlns="http://www.w3.org/2000/svg">
<path d="M10.9 5.83506L7.02085 3.33339C6.9005 3.26391 6.76399 3.22733 6.62502 3.22733C6.48605 3.22733 6.34954 3.26391 6.22919 3.33339C6.11181 3.4011 6.01378 3.49779 5.94447 3.61423C5.87517 3.73066 5.83691 3.86294 5.83335 3.99839V9.00173C5.83438 9.1428 5.87309 9.28103 5.94546 9.40212C6.01784 9.52321 6.12126 9.62277 6.24502 9.69048C6.36015 9.75827 6.49141 9.79382 6.62502 9.79339C6.76525 9.78374 6.90107 9.74028 7.02085 9.66673L10.9 7.16506C11.0111 7.09329 11.1025 6.99483 11.1657 6.87866C11.229 6.7625 11.2621 6.63233 11.2621 6.50006C11.2621 6.36779 11.229 6.23762 11.1657 6.12146C11.1025 6.00529 11.0111 5.90683 10.9 5.83506ZM7.41669 7.54506V5.45506L9.00002 6.50006L7.41669 7.54506ZM14.0509 0.570477L12.8238 0.412143C9.78456 0.0400278 6.71131 0.0400278 3.6721 0.412143L2.44502 0.570477C1.855 0.634687 1.30929 0.913955 0.912097 1.35496C0.514901 1.79596 0.294041 2.36781 0.291687 2.96131V10.0388C0.296719 10.6235 0.513754 11.1865 0.902494 11.6233C1.29123 12.0601 1.82527 12.341 2.40544 12.4138L3.63252 12.5642C5.15074 12.7487 6.67897 12.8386 8.20835 12.8334C9.73806 12.8334 11.2663 12.7382 12.7842 12.5484L14.0113 12.398C14.5914 12.3251 15.1255 12.0443 15.5142 11.6075C15.903 11.1707 16.12 10.6077 16.125 10.023V2.96131C16.1238 2.37387 15.9085 1.80702 15.5194 1.36692C15.1303 0.926824 14.5941 0.643664 14.0113 0.570477H14.0509ZM14.5813 10.0705C14.5819 10.2699 14.5072 10.4622 14.3722 10.609C14.2372 10.7558 14.0517 10.8462 13.8529 10.8621L12.6259 11.0126C9.7186 11.3767 6.77727 11.3767 3.87002 11.0126L2.64294 10.8621C2.44414 10.8462 2.25869 10.7558 2.12365 10.609C1.98862 10.4622 1.91396 10.2699 1.9146 10.0705V2.96131C1.92404 2.76494 2.00212 2.57811 2.13523 2.43342C2.26834 2.28874 2.44803 2.19538 2.64294 2.16964L3.83044 1.98756C6.73801 1.62866 9.67869 1.62866 12.5863 1.98756L13.8134 2.13798C14.0083 2.16372 14.1879 2.25707 14.3211 2.40176C14.4542 2.54644 14.5323 2.73327 14.5417 2.92964L14.5813 10.0705Z" fill="#F2709C"/>
</svg>
